<svg xmlns:xlink="http://www.w3.org/1999/xlink" xmlns="http://www.w3.org/2000/svg" width="233" height="59" fill="none"><path fill="#6C1D45" d="M83.635 12.28a3.272 3.272 0 0 0-1.486-1.18 5.213 5.213 0 0 0-1.954-.366c-.407 0-.794.04-1.181.142a2.879 2.879 0 0 0-1.018.448c-.305.203-.55.468-.733.794a2.332 2.332 0 0 0-.285 1.16c0 .672.224 1.18.693 1.527.468.345 1.038.65 1.73.915a31.9 31.9 0 0 0 2.239.754c.814.244 1.567.57 2.26.997a5.703 5.703 0 0 1 1.73 1.69c.467.712.691 1.628.691 2.808 0 1.059-.203 1.975-.59 2.768a5.508 5.508 0 0 1-1.567 1.955 6.708 6.708 0 0 1-2.28 1.16 9.44 9.44 0 0 1-2.748.386 10.25 10.25 0 0 1-3.521-.61c-1.12-.407-2.097-1.1-2.91-2.056l2.645-2.544c.428.651.977 1.16 1.67 1.506.691.366 1.424.55 2.198.55.407 0 .814-.062 1.22-.163a3.717 3.717 0 0 0 1.12-.51c.326-.223.61-.508.814-.854.204-.346.306-.733.306-1.18 0-.713-.224-1.283-.692-1.67-.468-.387-1.038-.712-1.73-.977a31.58 31.58 0 0 0-2.24-.773 9.686 9.686 0 0 1-2.238-.977 5.635 5.635 0 0 1-1.73-1.67c-.469-.691-.693-1.628-.693-2.788 0-1.018.204-1.893.631-2.626.428-.732.957-1.363 1.65-1.852a7.191 7.191 0 0 1 2.32-1.099 9.801 9.801 0 0 1 2.666-.366c1.038 0 2.035.162 3.013.468.977.305 1.852.834 2.625 1.547l-2.544 2.687h-.081zM94.18 8.066h-3.501V27.71h3.5V8.066zm22.572 18.218c-2.422 1.303-5.129 1.934-8.121 1.934-1.527 0-2.911-.244-4.173-.733-1.262-.488-2.361-1.18-3.277-2.076-.916-.895-1.628-1.974-2.157-3.236-.51-1.262-.774-2.646-.774-4.193 0-1.547.265-3.013.773-4.295a9.383 9.383 0 0 1 2.158-3.277c.916-.916 2.015-1.608 3.277-2.097 1.262-.488 2.667-.732 4.173-.732 1.506 0 2.91.183 4.213.55a8.566 8.566 0 0 1 3.521 1.933l-2.585 2.605c-.631-.61-1.384-1.079-2.279-1.425a8.315 8.315 0 0 0-2.85-.508c-.997 0-1.934.183-2.768.55-.814.365-1.527.854-2.117 1.505a6.81 6.81 0 0 0-1.384 2.24 7.646 7.646 0 0 0-.489 2.747c0 1.059.163 2.015.489 2.91.326.896.773 1.65 1.384 2.301a6.555 6.555 0 0 0 2.117 1.527c.814.366 1.75.55 2.768.55.896 0 1.73-.082 2.504-.245a7.1 7.1 0 0 0 2.096-.774v-4.64h-4.03V16.25h7.511v10.034h.02zm4.966-18.218h4.641l9.525 14.595h.041V8.066h3.501V27.71h-4.437l-9.709-15.063h-.061V27.71h-3.501V8.066zm29.291 0h3.033l8.467 19.643h-3.989l-1.832-4.499h-8.529l-1.77 4.498h-3.909l8.549-19.642h-.02zm4.437 12.152-3.033-8-3.073 8h6.106zm11.54-8.976h-6.025V8.066h15.551v3.176h-6.025v16.466h-3.501V11.242zm28.477 9.261c0 1.18-.204 2.26-.611 3.216a7.048 7.048 0 0 1-1.669 2.422 7.51 7.51 0 0 1-2.503 1.547c-.957.367-2.015.55-3.135.55-1.119 0-2.178-.183-3.135-.55a7.51 7.51 0 0 1-2.503-1.547 7.048 7.048 0 0 1-1.669-2.422c-.407-.957-.591-2.015-.591-3.216V8.066h3.501v12.315c0 .488.082.977.224 1.506.143.53.387 1.018.733 1.466.346.447.794.814 1.364 1.099.57.285 1.262.427 2.096.427.835 0 1.527-.142 2.097-.427a3.873 3.873 0 0 0 1.364-1.1 4.12 4.12 0 0 0 .732-1.465 5.85 5.85 0 0 0 .224-1.506V8.066h3.501v12.437h-.02zm5.128-12.437h6.819c.937 0 1.852.082 2.728.265.875.183 1.648.468 2.341.896a4.592 4.592 0 0 1 1.628 1.73c.407.712.61 1.628.61 2.748 0 1.424-.386 2.625-1.18 3.582-.794.957-1.913 1.547-3.379 1.75l5.211 8.692h-4.214l-4.559-8.325h-2.544v8.325h-3.501V8.066h.04zm6.209 8.325c.488 0 .997-.02 1.506-.06a4.93 4.93 0 0 0 1.384-.326 2.487 2.487 0 0 0 1.018-.814c.264-.367.386-.855.386-1.507 0-.57-.122-1.038-.366-1.384a2.365 2.365 0 0 0-.936-.794c-.387-.183-.814-.285-1.283-.346a10.72 10.72 0 0 0-1.384-.081h-3.033v5.333h2.728l-.02-.02zm12.109-8.325h13.007v3.176h-9.526v4.824h9.017v3.155h-9.017v5.332h10.014v3.155h-13.495V8.067zM74.007 35.037h7.653c.733 0 1.466.081 2.198.264a6.157 6.157 0 0 1 1.934.855c.57.407 1.018.916 1.384 1.547.346.631.53 1.384.53 2.28 0 1.099-.306 2.015-.937 2.748-.63.712-1.445 1.241-2.463 1.547v.06c.61.082 1.18.245 1.71.51a4.506 4.506 0 0 1 2.219 2.462c.224.55.325 1.14.325 1.771 0 1.079-.203 1.975-.63 2.687a5.218 5.218 0 0 1-1.67 1.73 7.282 7.282 0 0 1-2.381.936c-.896.184-1.812.285-2.728.285h-7.083V35.077l-.061-.04zm3.5 7.999h3.197c1.16 0 2.035-.224 2.625-.672.59-.448.875-1.058.875-1.791 0-.855-.305-1.486-.895-1.893-.61-.407-1.567-.63-2.89-.63h-2.89v4.986h-.021zm0 8.65h3.217c.448 0 .916-.02 1.425-.08a4.477 4.477 0 0 0 1.404-.388 2.754 2.754 0 0 0 1.059-.875c.285-.387.407-.895.407-1.547 0-1.038-.346-1.75-1.018-2.157-.672-.407-1.73-.611-3.155-.611h-3.359v5.659h.02zm21.659-16.649h3.033l8.468 19.642h-3.99l-1.832-4.499h-8.508l-1.77 4.499h-3.909l8.55-19.642h-.042zm4.438 12.151-3.033-8-3.074 8h6.107zm10.075-12.151h4.641l9.505 14.594h.061V35.037h3.501v19.662h-4.437l-9.709-15.083h-.061V54.7h-3.501V35.037zm22.921 0h3.501v8.325h.162l8.142-8.325h4.702l-9.18 9.078 9.791 10.584h-4.906l-8.528-9.668h-.183v9.668H136.6V35.037z"/><path fill="#B9975B" d="M24.206 25.538c0 1.12.916 2.056 2.035 2.056h3.685a5.725 5.725 0 0 1 5.72 5.72 5.725 5.725 0 0 1-5.72 5.719v4.091c5.414 0 9.81-4.396 9.81-9.81 0-5.415-4.396-9.812-9.81-9.812h-3.684c-1.14 0-2.036.916-2.036 2.056"/><path fill="#B9975B" d="M26.263 35.348h3.684a2.05 2.05 0 0 0 2.056-2.056c0-1.14-.916-2.036-2.056-2.036h-3.684a5.725 5.725 0 0 1-5.72-5.72 5.725 5.725 0 0 1 5.72-5.719v-4.09c-5.414 0-9.81 4.396-9.81 9.81 0 5.414 4.396 9.81 9.81 9.81z"/><path fill="#B9975B" d="M51.196 33.292c0 11.744-9.526 21.27-21.27 21.27h-3.684c-11.745 0-21.27-9.526-21.27-21.27v-2.036H.9v2.036c0 14.004 11.358 25.361 25.362 25.361h3.684c14.004 0 25.362-11.357 25.362-25.361v-2.036h-4.091v2.036h-.02zM29.946.175h-3.684C12.258.175.9 11.533.9 25.537v2.056h4.092v-2.056c0-11.745 9.526-21.27 21.27-21.27h3.684c11.745 0 21.27 9.525 21.27 21.27v2.056h4.092v-2.056C55.288 11.533 43.95.175 29.946.175z"/><path fill="#B9975B" d="M8.677 25.537v7.776c0 9.709 7.877 17.586 17.586 17.586h3.684c9.71 0 17.586-7.877 17.586-17.586v-7.776c0-9.709-7.877-17.586-17.586-17.586h-3.684c-9.71 0-17.586 7.877-17.586 17.586zm4.091 0c0-7.45 6.045-13.495 13.495-13.495h3.684c5.944 0 11.012 3.847 12.803 9.2a17.54 17.54 0 0 0-12.803-5.536v4.091c7.45 0 13.495 6.046 13.495 13.495 0 7.45-6.045 13.495-13.495 13.495h-3.684c-5.944 0-11.012-3.867-12.803-9.22a17.54 17.54 0 0 0 12.803 5.536v-4.09c-7.45 0-13.495-6.046-13.495-13.496v.02z"/></svg>