<svg width="150" height="50" viewBox="0 0 150 50" fill="none" xmlns="http://www.w3.org/2000/svg">
<path d="M137.668 0H11.918C11.459 0 11.005 0 10.549 0.003C10.167 0.005 9.786 0.013 9.4 0.019C8.561 0.028 7.723 0.101 6.895 0.237C6.069 0.378 5.268 0.642 4.52 1.021C3.772 1.404 3.089 1.902 2.495 2.496C1.899 3.088 1.403 3.772 1.024 4.521C0.644 5.27 0.381 6.072 0.243 6.9C0.104 7.727 0.029 8.564 0.019 9.402C0.007 9.786 0.007 10.171 0 10.554V39.45C0.007 39.837 0.008 40.212 0.019 40.601C0.029 41.44 0.104 42.277 0.244 43.104C0.381 43.933 0.644 44.736 1.024 45.485C1.403 46.232 1.9 46.912 2.497 47.5C3.087 48.096 3.77 48.594 4.519 48.974C5.267 49.354 6.068 49.619 6.895 49.761C7.724 49.897 8.561 49.971 9.4 49.983C9.788 49.991 10.167 49.996 10.549 49.996C11.007 49.999 11.459 49.999 11.918 49.999H137.668C138.118 49.999 138.573 49.999 139.023 49.996C139.403 49.996 139.794 49.991 140.175 49.984C141.013 49.973 141.849 49.898 142.675 49.761C143.505 49.618 144.309 49.353 145.06 48.974C145.808 48.594 146.491 48.096 147.081 47.5C147.677 46.909 148.175 46.228 148.559 45.483C148.936 44.733 149.197 43.93 149.333 43.101C149.472 42.274 149.549 41.438 149.564 40.599C149.569 40.211 149.569 39.836 149.569 39.447C149.579 38.992 149.579 38.541 149.579 38.08V11.92C149.579 11.463 149.579 11.008 149.569 10.555C149.569 10.173 149.569 9.787 149.564 9.405C149.549 8.566 149.472 7.729 149.333 6.901C149.197 6.074 148.935 5.272 148.558 4.522C147.786 3.019 146.563 1.795 145.06 1.022C144.309 0.644 143.505 0.38 142.675 0.239C141.849 0.101 141.013 0.028 140.175 0.019C139.794 0.012 139.403 0.005 139.023 0.002C138.573 0 138.117 0 137.668 0Z" fill="#A6A6A6"/>
<path d="M10.555 48.906C10.174 48.906 9.80303 48.901 9.42503 48.894C8.64203 48.883 7.86103 48.815 7.08803 48.689C6.36803 48.565 5.67003 48.334 5.01803 48.004C4.37103 47.677 3.78203 47.248 3.27203 46.734C2.75403 46.225 2.32303 45.635 1.99703 44.988C1.66503 44.336 1.43603 43.637 1.31703 42.916C1.18803 42.141 1.11903 41.358 1.10903 40.572C1.10003 40.31 1.09003 39.431 1.09003 39.431V10.556C1.09003 10.556 1.10203 9.69099 1.10903 9.43699C1.11803 8.65299 1.18703 7.87099 1.31503 7.09699C1.43503 6.37399 1.66403 5.67399 1.99503 5.01999C2.32103 4.37299 2.75003 3.78299 3.26403 3.27199C3.77803 2.75699 4.36903 2.32599 5.01703 1.99399C5.66703 1.66499 6.36403 1.43599 7.08303 1.31399C7.85803 1.18699 8.64203 1.11799 9.42803 1.10899L10.555 1.09399H139.016L140.158 1.10999C140.936 1.11899 141.712 1.18699 142.48 1.31299C143.207 1.43599 143.911 1.66699 144.569 1.99799C145.866 2.66599 146.922 3.72399 147.588 5.02199C147.913 5.67199 148.139 6.36699 148.256 7.08399C148.386 7.86399 148.459 8.65199 148.474 9.44299C148.478 9.79599 148.478 10.178 148.478 10.555C148.488 11.024 148.488 11.47 148.488 11.92V38.081C148.488 38.535 148.488 38.979 148.478 39.425C148.478 39.831 148.478 40.204 148.473 40.587C148.459 41.364 148.387 42.138 148.26 42.904C148.144 43.63 147.916 44.334 147.585 44.991C147.256 45.632 146.827 46.217 146.315 46.724C145.804 47.241 145.213 47.672 144.565 48.001C143.909 48.334 143.206 48.566 142.48 48.689C141.708 48.815 140.927 48.883 140.144 48.892C139.778 48.901 139.394 48.906 139.023 48.906L137.668 48.909L10.555 48.906Z" fill="black"/>
<path d="M30.9612 25.3749C30.9882 23.2549 32.1002 21.2969 33.9062 20.1859C32.7612 18.5509 30.9132 17.5519 28.9182 17.4889C26.8182 17.2689 24.7832 18.7449 23.7132 18.7449C22.6232 18.7449 20.9762 17.5099 19.2032 17.5469C16.8702 17.6229 14.7472 18.9169 13.6122 20.9569C11.1942 25.1419 12.9982 31.2939 15.3132 34.6779C16.4722 36.3339 17.8262 38.1839 19.5982 38.1189C21.3322 38.0459 21.9792 37.0119 24.0732 37.0119C26.1462 37.0119 26.7532 38.1189 28.5612 38.0779C30.4222 38.0459 31.5932 36.4129 32.7112 34.7399C33.5442 33.5599 34.1852 32.2549 34.6112 30.8749C32.4002 29.9409 30.9632 27.7749 30.9612 25.3749ZM27.5462 15.2629C28.5602 14.0449 29.0602 12.4799 28.9392 10.8999C27.3892 11.0629 25.9582 11.8039 24.9292 12.9749C23.9142 14.1299 23.4002 15.6409 23.4992 17.1749C25.0702 17.1909 26.5612 16.4859 27.5462 15.2629Z" fill="white"/>
<path d="M52.8771 33.9249H46.9621L45.5411 38.1199H43.0341L48.6391 22.5979H51.2431L56.8471 38.1199H54.2981L52.8771 33.9249ZM47.5731 31.9869H52.2631L49.9511 25.1799H49.8871L47.5731 31.9869ZM68.9491 32.4629C68.9491 35.9789 67.0671 38.2369 64.2261 38.2369C62.7581 38.3139 61.3751 37.5459 60.6661 36.2589H60.6121V41.8639H58.2871V26.8019H60.5371V28.6849H60.5781C61.3191 27.4059 62.7041 26.6369 64.1821 26.6849C67.0541 26.6849 68.9491 28.9549 68.9491 32.4629ZM66.5621 32.4629C66.5621 30.1709 65.3771 28.6649 63.5711 28.6649C61.7961 28.6649 60.6021 30.2019 60.6021 32.4629C60.6021 34.7429 61.7961 36.2699 63.5711 36.2699C65.3771 36.2699 66.5621 34.7739 66.5621 32.4629ZM81.4061 32.4629C81.4061 35.9789 79.5231 38.2369 76.6821 38.2369C75.2141 38.3139 73.8321 37.5459 73.1221 36.2589H73.0681V41.8639H70.7441V26.8019H72.9931V28.6849H73.0361C73.7771 27.4059 75.1611 26.6369 76.6391 26.6849C79.5121 26.6849 81.4061 28.9549 81.4061 32.4629ZM79.0181 32.4629C79.0181 30.1709 77.8331 28.6649 76.0271 28.6649C74.2521 28.6649 73.0581 30.2019 73.0581 32.4629C73.0581 34.7429 74.2521 36.2699 76.0271 36.2699C77.8331 36.2699 79.0181 34.7739 79.0181 32.4629ZM89.6371 33.7949C89.8091 35.3349 91.3041 36.3449 93.3491 36.3449C95.3071 36.3449 96.7161 35.3349 96.7161 33.9459C96.7161 32.7409 95.8661 32.0209 93.8531 31.5259L91.8421 31.0409C88.9921 30.3539 87.6681 29.0199 87.6681 26.8559C87.6681 24.1789 90.0021 22.3389 93.3171 22.3389C96.5971 22.3389 98.8461 24.1789 98.9211 26.8559H96.5761C96.4361 25.3069 95.1561 24.3719 93.2831 24.3719C91.4111 24.3719 90.1321 25.3189 90.1321 26.6949C90.1321 27.7919 90.9491 28.4389 92.9511 28.9319L94.6611 29.3519C97.8461 30.1059 99.1681 31.3849 99.1681 33.6559C99.1681 36.5599 96.8561 38.3789 93.1771 38.3789C89.7341 38.3789 87.4091 36.6039 87.2591 33.7949H89.6371ZM104.182 24.1249V26.8019H106.334V28.6419H104.182V34.8809C104.182 35.8509 104.613 36.3029 105.559 36.3029C105.815 36.2979 106.07 36.2799 106.323 36.2489V38.0779C105.898 38.1569 105.466 38.1929 105.033 38.1849C102.742 38.1849 101.848 37.3239 101.848 35.1289V28.6419H100.203V26.8019H101.848V24.1249H104.182ZM107.581 32.4629C107.581 28.9009 109.678 26.6639 112.948 26.6639C116.229 26.6639 118.317 28.9009 118.317 32.4629C118.317 36.0329 116.241 38.2599 112.948 38.2599C109.657 38.2599 107.581 36.0319 107.581 32.4629ZM115.949 32.4629C115.949 30.0199 114.831 28.5769 112.948 28.5769C111.066 28.5769 109.948 30.0299 109.948 32.4629C109.948 34.9149 111.066 36.3449 112.948 36.3449C114.831 36.3449 115.949 34.9149 115.949 32.4629ZM120.232 26.8019H122.448V28.7289H122.502C122.811 27.4899 123.947 26.6369 125.223 26.6849C125.491 26.6839 125.758 26.7129 126.019 26.7709V28.9439C125.681 28.8409 125.329 28.7929 124.976 28.8039C124.293 28.7759 123.632 29.0479 123.166 29.5489C122.701 30.0489 122.477 30.7279 122.554 31.4069V38.1199H120.232V26.8019ZM136.729 34.7959C136.417 36.8499 134.417 38.2599 131.857 38.2599C128.564 38.2599 126.521 36.0549 126.521 32.5159C126.521 28.9659 128.576 26.6639 131.758 26.6639C134.891 26.6639 136.858 28.8139 136.858 32.2459V33.0429H128.866V33.1819C128.791 34.0249 129.082 34.8589 129.665 35.4719C130.247 36.0849 131.065 36.4189 131.911 36.3869C133.037 36.4929 134.1 35.8459 134.523 34.7959H136.729ZM128.877 31.4189H134.534C134.577 30.6619 134.301 29.9209 133.775 29.3759C133.248 28.8309 132.517 28.5299 131.759 28.5459C130.995 28.5419 130.261 28.8419 129.72 29.3819C129.178 29.9209 128.875 30.6549 128.877 31.4189Z" fill="white"/>
<path d="M47.281 10.9139C48.268 10.8429 49.234 11.2179 49.914 11.9359C50.594 12.6539 50.916 13.6389 50.791 14.6199C50.791 17.0029 49.504 18.3729 47.281 18.3729H44.588V10.9129L47.281 10.9139ZM45.746 17.3179H47.153C47.857 17.3589 48.543 17.0809 49.02 16.5609C49.497 16.0409 49.714 15.3329 49.611 14.6349C49.707 13.9399 49.487 13.2379 49.011 12.7219C48.535 12.2049 47.854 11.9289 47.153 11.9669H45.746V17.3179ZM52.099 15.5549C52.006 14.5479 52.491 13.5749 53.351 13.0429C54.211 12.5109 55.297 12.5109 56.157 13.0429C57.017 13.5749 57.502 14.5479 57.409 15.5549C57.51 16.5659 57.027 17.5469 56.164 18.0839C55.301 18.6209 54.208 18.6209 53.345 18.0839C52.482 17.5469 52 16.5659 52.1 15.5549H52.099ZM56.266 15.5549C56.266 14.3349 55.718 13.6209 54.757 13.6209C53.79 13.6209 53.248 14.3349 53.248 15.5549C53.248 16.7849 53.79 17.4929 54.757 17.4929C55.719 17.4929 56.266 16.7799 56.266 15.5549ZM64.465 18.3729H63.313L62.15 14.2259H62.063L60.904 18.3729H59.763L58.21 12.7439H59.338L60.345 17.0389H60.429L61.587 12.7439H62.652L63.809 17.0389H63.897L64.9 12.7439H66.012L64.465 18.3729ZM67.316 12.7439H68.385V13.6369H68.468C68.757 12.9789 69.431 12.5769 70.148 12.6349C70.703 12.5929 71.246 12.8059 71.625 13.2129C72.004 13.6209 72.178 14.1779 72.096 14.7289V18.3729H70.985V15.0079C70.985 14.1029 70.593 13.6529 69.77 13.6529C69.394 13.6349 69.029 13.7829 68.771 14.0569C68.512 14.3309 68.387 14.7039 68.426 15.0789V18.3729H67.316V12.7439ZM73.866 10.5459H74.976V18.3709H73.866V10.5459ZM76.521 15.5549C76.426 14.5469 76.91 13.5709 77.771 13.0379C78.631 12.5039 79.72 12.5039 80.581 13.0379C81.442 13.5709 81.926 14.5469 81.83 15.5549C81.931 16.5659 81.448 17.5469 80.585 18.0839C79.722 18.6209 78.629 18.6209 77.766 18.0839C76.904 17.5469 76.421 16.5659 76.521 15.5549ZM80.688 15.5549C80.688 14.3349 80.139 13.6209 79.178 13.6209C78.211 13.6209 77.669 14.3349 77.669 15.5549C77.669 16.7849 78.211 17.4919 79.178 17.4919C80.14 17.4919 80.688 16.7799 80.688 15.5549ZM82.999 16.7799C82.999 15.7679 83.754 15.1819 85.094 15.0999L86.619 15.0119V14.5259C86.619 13.9329 86.225 13.5959 85.467 13.5959C84.845 13.5959 84.417 13.8239 84.293 14.2209H83.218C83.33 13.2549 84.24 12.6339 85.518 12.6339C86.928 12.6339 87.724 13.3379 87.724 14.5259V18.3729H86.655V17.5809H86.568C86.204 18.1589 85.558 18.4969 84.877 18.4649C84.399 18.5149 83.922 18.3599 83.564 18.0389C83.207 17.7179 83.001 17.2609 82.999 16.7799ZM86.618 16.2999V15.8289L85.243 15.9159C84.468 15.9689 84.118 16.2319 84.118 16.7289C84.118 17.2349 84.556 17.5289 85.16 17.5289C85.518 17.5649 85.874 17.4539 86.149 17.2229C86.424 16.9909 86.593 16.6579 86.618 16.2999ZM89.184 15.5549C89.184 13.7759 90.099 12.6499 91.521 12.6499C92.239 12.6169 92.911 13.0019 93.246 13.6369H93.33V10.5459H94.44V18.3709H93.376V17.4839H93.289C92.928 18.1139 92.246 18.4919 91.52 18.4649C90.089 18.4649 89.184 17.3389 89.184 15.5549ZM90.331 15.5549C90.331 16.7489 90.894 17.4669 91.835 17.4669C92.773 17.4669 93.35 16.7389 93.35 15.5599C93.35 14.3869 92.765 13.6469 91.835 13.6469C90.9 13.6469 90.331 14.3719 90.331 15.5549ZM99.036 15.5549C98.941 14.5469 99.425 13.5709 100.286 13.0379C101.146 12.5039 102.235 12.5039 103.096 13.0379C103.957 13.5709 104.441 14.5469 104.345 15.5549C104.446 16.5659 103.963 17.5469 103.1 18.0839C102.237 18.6209 101.144 18.6209 100.281 18.0839C99.419 17.5469 98.936 16.5659 99.036 15.5549ZM103.203 15.5549C103.203 14.3349 102.655 13.6209 101.693 13.6209C100.728 13.6209 100.184 14.3349 100.184 15.5549C100.184 16.7849 100.728 17.4919 101.693 17.4919C102.655 17.4919 103.203 16.7799 103.203 15.5549ZM105.836 12.7439H106.905V13.6369H106.988C107.277 12.9789 107.951 12.5769 108.668 12.6349C109.223 12.5929 109.766 12.8059 110.145 13.2129C110.524 13.6209 110.698 14.1779 110.616 14.7289V18.3719H109.505V15.0069C109.505 14.1019 109.113 13.6519 108.29 13.6519C107.914 13.6349 107.549 13.7829 107.291 14.0569C107.032 14.3309 106.907 14.7039 106.947 15.0789V18.3719H105.835L105.836 12.7439ZM116.893 11.3419V12.7689H118.113V13.7049H116.893V16.5989C116.893 17.1889 117.135 17.4469 117.689 17.4469C117.831 17.4469 117.972 17.4379 118.113 17.4209V18.3459C117.913 18.3819 117.711 18.4009 117.508 18.4039C116.273 18.4039 115.781 17.9689 115.781 16.8839V13.7049H114.888V12.7689H115.781V11.3429L116.893 11.3419ZM119.63 10.5459H120.73V13.6469H120.818C121.121 12.9829 121.808 12.5799 122.535 12.6399C123.087 12.6099 123.623 12.8279 123.998 13.2339C124.372 13.6389 124.547 14.1909 124.473 14.7389V18.3719H123.361V15.0129C123.361 14.1129 122.943 13.6579 122.158 13.6579C121.771 13.6259 121.39 13.7659 121.117 14.0419C120.844 14.3169 120.706 14.6989 120.74 15.0849V18.3729H119.63V10.5459ZM130.95 16.8519C130.639 17.9139 129.612 18.5999 128.513 18.4809C127.762 18.5019 127.04 18.1909 126.539 17.6309C126.038 17.0709 125.808 16.3189 125.911 15.5749C125.812 14.8289 126.041 14.0769 126.538 13.5129C127.036 12.9489 127.754 12.6289 128.506 12.6349C130.073 12.6349 131.018 13.7049 131.018 15.4719V15.8599H127.043V15.9219C127.007 16.3399 127.15 16.7539 127.436 17.0609C127.721 17.3679 128.123 17.5399 128.543 17.5349C129.086 17.5989 129.614 17.3299 129.88 16.8519H130.95ZM127.043 15.0389H129.886C129.915 14.6559 129.781 14.2799 129.517 14.0019C129.253 13.7239 128.883 13.5709 128.5 13.5799C128.112 13.5749 127.738 13.7269 127.464 14.0019C127.19 14.2769 127.038 14.6509 127.043 15.0389Z" fill="white"/>
</svg>