<svg width="170" height="51" viewBox="0 0 170 51" fill="none" xmlns="http://www.w3.org/2000/svg">
<path d="M163.695 50.296H6.298C2.827 50.296 0 47.461 0 44.009V6.287C0 2.822 2.827 0 6.298 0H163.695C167.164 0 169.994 2.822 169.994 6.287V44.009C169.994 47.461 167.164 50.296 163.695 50.296Z" fill="black"/>
<path d="M163.695 1.007C166.607 1.007 168.99 3.38 168.99 6.287V44.009C168.99 46.916 166.623 49.289 163.695 49.289H6.298C3.387 49.289 1.004 46.916 1.004 44.009V6.287C1.004 3.38 3.371 1.007 6.298 1.007H163.695ZM163.695 0H6.298C2.827 0 0 2.835 0 6.287V44.009C0 47.474 2.827 50.296 6.298 50.296H163.695C167.164 50.296 169.994 47.474 169.994 44.009V6.287C169.994 2.835 167.164 0 163.695 0Z" fill="#A6A6A6"/>
<path d="M89.553 16.638C88.418 16.638 87.461 16.24 86.704 15.456C85.954 14.694 85.535 13.643 85.554 12.571C85.554 11.426 85.941 10.457 86.704 9.68896C87.458 8.90496 88.415 8.50696 89.55 8.50696C90.673 8.50696 91.63 8.90496 92.399 9.68896C93.162 10.483 93.55 11.451 93.55 12.571C93.538 13.719 93.15 14.687 92.399 15.453C91.646 16.243 90.689 16.638 89.553 16.638ZM55.775 16.638C54.665 16.638 53.702 16.246 52.914 15.471C52.132 14.7 51.735 13.725 51.735 12.574C51.735 11.423 52.132 10.448 52.914 9.67696C53.686 8.90196 54.65 8.50996 55.775 8.50996C56.326 8.50996 56.861 8.61996 57.373 8.84296C57.877 9.05896 58.287 9.35396 58.59 9.71396L58.665 9.80496L57.818 10.639L57.73 10.536C57.251 9.96496 56.61 9.68596 55.763 9.68596C55.006 9.68596 54.346 9.95596 53.802 10.489C53.255 11.025 52.976 11.727 52.976 12.577C52.976 13.427 53.255 14.129 53.802 14.665C54.346 15.199 55.006 15.468 55.763 15.468C56.57 15.468 57.248 15.199 57.777 14.665C58.09 14.352 58.283 13.913 58.352 13.358H55.635V12.185H59.519L59.534 12.292C59.563 12.489 59.591 12.693 59.591 12.881C59.591 13.963 59.265 14.838 58.621 15.484C57.889 16.249 56.932 16.638 55.775 16.638ZM100.687 16.472H99.489L95.82 10.586L95.852 11.646V16.468H94.654V8.67596H96.021L96.058 8.73596L99.508 14.28L99.476 13.223V8.67596H100.687V16.472ZM80.553 16.472H79.34V9.84896H77.235V8.67596H82.655V9.84896H80.55V16.472H80.553ZM76.247 16.472H75.036V8.67596H76.247V16.472ZM69.445 16.472H68.235V9.84896H66.13V8.67596H71.549V9.84896H69.445V16.472ZM65.364 16.459H60.723V8.67596H65.364V9.84896H61.936V11.988H65.029V13.148H61.936V15.286H65.364V16.459ZM87.593 14.65C88.134 15.192 88.79 15.465 89.553 15.465C90.338 15.465 90.979 15.199 91.514 14.65C92.046 14.117 92.315 13.417 92.315 12.574C92.315 11.731 92.046 11.028 91.517 10.498C90.976 9.95596 90.316 9.68296 89.556 9.68296C88.772 9.68296 88.13 9.94896 87.599 10.498C87.067 11.031 86.798 11.731 86.798 12.574C86.798 13.417 87.064 14.12 87.593 14.65Z" fill="white"/>
<path d="M85.441 27.356C82.486 27.356 80.09 29.604 80.09 32.705C80.09 35.778 82.501 38.054 85.441 38.054C88.396 38.054 90.792 35.79 90.792 32.705C90.792 29.604 88.396 27.356 85.441 27.356ZM85.441 35.935C83.824 35.935 82.432 34.593 82.432 32.692C82.432 30.764 83.827 29.45 85.441 29.45C87.058 29.45 88.449 30.764 88.449 32.692C88.453 34.605 87.058 35.935 85.441 35.935ZM73.767 27.356C70.811 27.356 68.416 29.604 68.416 32.705C68.416 35.778 70.827 38.054 73.767 38.054C76.722 38.054 79.118 35.79 79.118 32.705C79.118 29.604 76.719 27.356 73.767 27.356ZM73.767 35.935C72.15 35.935 70.758 34.593 70.758 32.692C70.758 30.764 72.153 29.45 73.767 29.45C75.384 29.45 76.775 30.764 76.775 32.692C76.775 34.605 75.384 35.935 73.767 35.935ZM59.875 28.989V31.253H65.295C65.129 32.523 64.71 33.461 64.069 34.103C63.275 34.9 62.049 35.765 59.888 35.765C56.557 35.765 53.952 33.069 53.952 29.729C53.952 26.39 56.557 23.693 59.888 23.693C61.686 23.693 62.996 24.405 63.969 25.314L65.57 23.709C64.219 22.411 62.421 21.417 59.9 21.417C55.331 21.417 51.497 25.148 51.497 29.717C51.497 34.298 55.328 38.017 59.9 38.017C62.368 38.017 64.219 37.208 65.683 35.684C67.174 34.188 67.647 32.078 67.647 30.375C67.647 29.845 67.606 29.369 67.522 28.964H59.872C59.875 28.961 59.875 28.989 59.875 28.989ZM116.695 30.751C116.248 29.55 114.897 27.343 112.126 27.343C109.38 27.343 107.097 29.51 107.097 32.692C107.097 35.696 109.355 38.042 112.392 38.042C114.831 38.042 116.251 36.546 116.836 35.668L115.025 34.452C114.425 35.345 113.59 35.932 112.405 35.932C111.207 35.932 110.369 35.386 109.812 34.31L116.945 31.347C116.945 31.35 116.695 30.751 116.695 30.751ZM109.421 32.539C109.365 30.472 111.022 29.422 112.208 29.422C113.143 29.422 113.921 29.883 114.187 30.554L109.421 32.539ZM103.626 37.722H105.969V22.006H103.626V37.722ZM99.78 28.544H99.695C99.167 27.914 98.163 27.343 96.881 27.343C94.219 27.343 91.767 29.692 91.767 32.708C91.767 35.712 94.207 38.032 96.881 38.032C98.147 38.032 99.167 37.459 99.695 36.816H99.78V37.584C99.78 39.625 98.691 40.726 96.937 40.726C95.501 40.726 94.61 39.691 94.247 38.826L92.212 39.679C92.796 41.09 94.357 42.836 96.934 42.836C99.68 42.836 102.006 41.215 102.006 37.261V27.663H99.792V28.544H99.78ZM97.09 35.935C95.473 35.935 94.122 34.58 94.122 32.708C94.122 30.82 95.473 29.453 97.09 29.453C98.691 29.453 99.933 30.836 99.933 32.708C99.948 34.58 98.694 35.935 97.09 35.935ZM127.663 22.006H122.062V37.722H124.404V31.771H127.666C130.258 31.771 132.807 29.886 132.807 26.895C132.807 23.903 130.268 22.006 127.663 22.006ZM127.731 29.576H124.401V24.182H127.731C129.486 24.182 130.477 25.634 130.477 26.879C130.477 28.111 129.473 29.576 127.731 29.576ZM142.195 27.327C140.494 27.327 138.74 28.083 138.014 29.729L140.091 30.595C140.538 29.729 141.357 29.434 142.223 29.434C143.437 29.434 144.663 30.162 144.691 31.46V31.626C144.272 31.388 143.352 31.024 142.251 31.024C140.009 31.024 137.736 32.253 137.736 34.558C137.736 36.668 139.575 38.023 141.623 38.023C143.196 38.023 144.062 37.311 144.603 36.487H144.688V37.703H146.946V31.683C146.946 28.879 144.869 27.327 142.195 27.327ZM141.901 35.935C141.135 35.935 140.062 35.558 140.062 34.593C140.062 33.376 141.401 32.915 142.542 32.915C143.574 32.915 144.062 33.138 144.675 33.445C144.506 34.856 143.318 35.922 141.901 35.935ZM155.183 27.663L152.493 34.48H152.409L149.623 27.663H147.102L151.283 37.192L148.9 42.488H151.339L157.772 27.663H155.183ZM134.099 37.722H136.441V22.006H134.099V37.722Z" fill="white"/>
<path d="M13.085 9.47294C12.722 9.86494 12.512 10.4639 12.512 11.2479V39.0519C12.512 39.8349 12.722 40.4339 13.097 40.8109L13.194 40.8949L28.731 25.3169V24.9689L13.182 9.38794L13.085 9.47294Z" fill="url(#paint0_linear_420_18)"/>
<path d="M33.9 30.526L28.718 25.33V24.966L33.9 19.77L34.013 19.839L40.142 23.332C41.896 24.323 41.896 25.96 40.142 26.964L34.013 30.457L33.9 30.526Z" fill="url(#paint1_linear_420_18)"/>
<path d="M34.013 30.4569L28.718 25.1479L13.085 40.823C13.657 41.438 14.617 41.5069 15.69 40.9079L34.013 30.4569Z" fill="url(#paint2_linear_420_18)"/>
<path d="M34.013 19.839L15.69 9.40398C14.617 8.78898 13.654 8.87398 13.085 9.48898L28.718 25.148L34.013 19.839Z" fill="url(#paint3_linear_420_18)"/>
<path opacity="0.2" d="M33.9 30.344L15.702 40.71C14.686 41.297 13.779 41.256 13.194 40.723L13.097 40.82L13.194 40.905C13.779 41.435 14.686 41.479 15.702 40.892L34.025 30.457L33.9 30.344Z" fill="black"/>
<path opacity="0.12" d="M40.142 26.7819L33.884 30.3439L33.997 30.4569L40.126 26.9639C41.005 26.4619 41.437 25.8029 41.437 25.1479C41.384 25.7499 40.936 26.3209 40.142 26.7819Z" fill="black"/>
<path opacity="0.25" d="M15.69 9.58597L40.142 23.514C40.936 23.963 41.384 24.549 41.452 25.148C41.452 24.493 41.021 23.834 40.142 23.332L15.69 9.40397C13.935 8.39697 12.512 9.23797 12.512 11.248V11.429C12.512 9.41597 13.935 8.59197 15.69 9.58597Z" fill="white"/>
<defs>
<linearGradient id="paint0_linear_420_18" x1="-14.2785" y1="2.70899" x2="-25.7471" y2="14.1776" gradientUnits="userSpaceOnUse">
<stop stop-color="#00A0FF"/>
<stop offset="1" stop-color="#00E3FF"/>
</linearGradient>
<linearGradient id="paint1_linear_420_18" x1="-27.718" y1="-18.77" x2="-40.4575" y2="-18.77" gradientUnits="userSpaceOnUse">
<stop stop-color="#FFE000"/>
<stop offset="1" stop-color="#FF9C00"/>
</linearGradient>
<linearGradient id="paint2_linear_420_18" x1="-25.8276" y1="-8.0301" x2="-40.6261" y2="6.76811" gradientUnits="userSpaceOnUse">
<stop stop-color="#FF3A44"/>
<stop offset="1" stop-color="#C31162"/>
</linearGradient>
<linearGradient id="paint3_linear_420_18" x1="3.40019" y1="15.3974" x2="18.1982" y2="30.1961" gradientUnits="userSpaceOnUse">
<stop stop-color="#32A071"/>
<stop offset="1" stop-color="#00F076"/>
</linearGradient>
</defs>
</svg>
