<svg width="342" height="428" viewBox="0 0 342 428" fill="none" xmlns="http://www.w3.org/2000/svg">
<path d="M171 0.666626C125.736 0.666626 82.3267 18.6475 50.3205 50.6537C18.3142 82.6599 0.333344 126.07 0.333344 171.333C0.333344 286.533 150.733 416.667 157.133 422.213C160.998 425.518 165.915 427.335 171 427.335C176.085 427.335 181.003 425.518 184.867 422.213C192.333 416.667 341.667 286.533 341.667 171.333C341.667 126.07 323.686 82.6599 291.68 50.6537C259.673 18.6475 216.264 0.666626 171 0.666626ZM171 377.2C125.56 334.533 43 242.587 43 171.333C43 137.386 56.4857 104.828 80.4903 80.8236C104.495 56.819 137.052 43.3333 171 43.3333C204.948 43.3333 237.505 56.819 261.51 80.8236C285.514 104.828 299 137.386 299 171.333C299 242.587 216.44 334.747 171 377.2ZM171 86C154.123 86 137.624 91.0047 123.591 100.381C109.558 109.758 98.621 123.085 92.1623 138.678C85.7036 154.27 84.0137 171.428 87.3063 187.981C90.5989 204.534 98.7261 219.739 110.66 231.673C122.594 243.607 137.799 251.734 154.352 255.027C170.905 258.32 188.063 256.63 203.656 250.171C219.248 243.712 232.576 232.775 241.952 218.742C251.329 204.709 256.333 188.211 256.333 171.333C256.333 148.701 247.343 126.997 231.34 110.994C215.337 94.9904 193.632 86 171 86ZM171 214C162.561 214 154.312 211.498 147.296 206.809C140.279 202.121 134.81 195.457 131.581 187.661C128.352 179.865 127.507 171.286 129.153 163.009C130.799 154.733 134.863 147.13 140.83 141.163C146.797 135.196 154.4 131.133 162.676 129.486C170.953 127.84 179.532 128.685 187.328 131.914C195.124 135.144 201.788 140.612 206.476 147.629C211.164 154.645 213.667 162.895 213.667 171.333C213.667 182.649 209.171 193.502 201.17 201.503C193.168 209.505 182.316 214 171 214Z" fill="white"/>
</svg>
