<svg xmlns:xlink="http://www.w3.org/1999/xlink" width="232" height="59" viewBox="0 0 232 59" fill="none" xmlns="http://www.w3.org/2000/svg" id="svg1415167460_9277">
<path d="M82.9557 12.2815C82.5894 11.7523 82.0805 11.3452 81.4699 11.1009C80.8592 10.8567 80.2079 10.7345 79.5158 10.7345C79.1087 10.7345 78.722 10.7752 78.3353 10.877C77.9485 10.9584 77.6229 11.1213 77.3176 11.3248C77.0122 11.5284 76.768 11.793 76.5848 12.1186C76.4016 12.4443 76.2998 12.831 76.2998 13.2788C76.2998 13.9505 76.5237 14.4594 76.9919 14.8054C77.46 15.1515 78.03 15.4568 78.722 15.7214C79.4141 15.986 80.1468 16.2302 80.961 16.4745C81.7752 16.7187 82.5283 17.0444 83.2204 17.4719C83.9124 17.8993 84.4823 18.4692 84.9505 19.1613C85.4186 19.8737 85.6425 20.7896 85.6425 21.9702C85.6425 23.0286 85.439 23.9446 85.0523 24.7384C84.6655 25.5322 84.1363 26.1836 83.485 26.6924C82.8336 27.2013 82.0601 27.6084 81.2053 27.8526C80.33 28.1173 79.4141 28.2394 78.4574 28.2394C77.2361 28.2394 76.0556 28.0358 74.9361 27.6287C73.8166 27.2217 72.8396 26.5296 72.0254 25.5729L74.6715 23.0286C75.0989 23.68 75.6485 24.1888 76.3405 24.5349C77.0326 24.9012 77.7654 25.0844 78.5388 25.0844C78.9459 25.0844 79.353 25.0234 79.7601 24.9216C80.1672 24.8198 80.5336 24.6366 80.8796 24.4127C81.2053 24.1888 81.4902 23.9039 81.6938 23.5579C81.8973 23.2118 81.9991 22.8251 81.9991 22.3773C81.9991 21.6649 81.7752 21.095 81.307 20.7082C80.8389 20.3215 80.269 19.9958 79.5769 19.7312C78.8848 19.4666 78.1521 19.202 77.3379 18.9577C76.5237 18.7135 75.7706 18.3878 75.0989 17.9807C74.4069 17.5533 73.8369 17.0037 73.3688 16.3117C72.9006 15.6196 72.6767 14.6833 72.6767 13.5231C72.6767 12.5054 72.8803 11.6301 73.3077 10.8974C73.7352 10.1646 74.2644 9.53362 74.9564 9.04511C75.6281 8.5566 76.4016 8.19022 77.2768 7.94597C78.1521 7.70172 79.0273 7.57959 79.9433 7.57959C80.9814 7.57959 81.9787 7.74243 82.9557 8.04774C83.9328 8.35306 84.808 8.88228 85.5815 9.59468L83.0372 12.2815H82.9557Z" fill="#FFFFFF"></path>
<path d="M93.501 8.06689H90V27.709H93.501V8.06689Z" fill="#FFFFFF"></path>
<path d="M116.074 26.2854C113.651 27.588 110.944 28.219 107.952 28.219C106.425 28.219 105.041 27.9748 103.779 27.4863C102.517 26.9978 101.418 26.3057 100.502 25.4101C99.5864 24.5145 98.874 23.4357 98.3448 22.1737C97.8359 20.9118 97.5713 19.5277 97.5713 17.9807C97.5713 16.4338 97.8359 14.9683 98.3448 13.6859C98.8536 12.4036 99.5864 11.3045 100.502 10.4089C101.418 9.49291 102.517 8.80086 103.779 8.31235C105.041 7.82384 106.446 7.57959 107.952 7.57959C109.458 7.57959 110.863 7.76278 112.165 8.12916C113.488 8.49554 114.649 9.12653 115.687 10.0628L113.102 12.6682C112.471 12.0576 111.718 11.5894 110.822 11.2434C109.926 10.9177 108.97 10.7345 107.972 10.7345C106.975 10.7345 106.039 10.9177 105.204 11.2841C104.39 11.6505 103.678 12.139 103.087 12.7903C102.497 13.4213 102.029 14.1744 101.703 15.0293C101.378 15.8842 101.215 16.8002 101.215 17.7772C101.215 18.8356 101.378 19.7923 101.703 20.6879C102.029 21.5835 102.477 22.3366 103.087 22.9879C103.698 23.6393 104.39 24.1481 105.204 24.5145C106.018 24.8809 106.955 25.0641 107.972 25.0641C108.868 25.0641 109.703 24.9827 110.476 24.8198C111.27 24.657 111.962 24.3924 112.573 24.0464V19.4055H108.542V16.2506H116.053V26.2854H116.074Z" fill="#FFFFFF"></path>
<path d="M121.039 8.06689H125.68L135.206 22.6611H135.246V8.06689H138.747V27.709H134.31L124.601 12.6467H124.54V27.709H121.039V8.06689Z" fill="#FFFFFF"></path>
<path d="M150.33 8.06689H153.363L161.831 27.709H157.841L156.009 23.2106H147.481L145.71 27.709H141.802L150.351 8.06689H150.33ZM154.768 20.2185L151.735 12.2192L148.661 20.2185H154.768Z" fill="#FFFFFF"></path>
<path d="M166.307 11.2422H160.282V8.06689H175.833V11.2422H169.808V27.709H166.307V11.2422Z" fill="#FFFFFF"></path>
<path d="M194.784 20.5035C194.784 21.684 194.581 22.7628 194.174 23.7195C193.766 24.6761 193.217 25.47 192.504 26.1417C191.792 26.8134 190.958 27.3222 190.001 27.6886C189.044 28.055 187.986 28.2382 186.866 28.2382C185.747 28.2382 184.688 28.055 183.732 27.6886C182.775 27.3222 181.941 26.8134 181.228 26.1417C180.516 25.47 179.966 24.6761 179.559 23.7195C179.152 22.7628 178.969 21.7044 178.969 20.5035V8.06689H182.47V20.3814C182.47 20.8699 182.551 21.3584 182.694 21.8876C182.836 22.4168 183.08 22.9053 183.426 23.3531C183.772 23.8009 184.22 24.1673 184.79 24.4522C185.36 24.7372 186.052 24.8797 186.887 24.8797C187.721 24.8797 188.413 24.7372 188.983 24.4522C189.553 24.1673 190.001 23.8009 190.347 23.3531C190.693 22.9053 190.937 22.4168 191.08 21.8876C191.222 21.3584 191.304 20.8495 191.304 20.3814V8.06689H194.805V20.5035H194.784Z" fill="#FFFFFF"></path>
<path d="M199.913 8.06689H206.732C207.668 8.06689 208.584 8.14831 209.459 8.3315C210.334 8.51469 211.108 8.79966 211.8 9.2271C212.492 9.65454 213.021 10.2245 213.428 10.9572C213.835 11.6696 214.039 12.5856 214.039 13.7051C214.039 15.1299 213.652 16.3308 212.858 17.2875C212.064 18.2441 210.945 18.8344 209.479 19.038L214.69 27.7293H210.477L205.917 19.4043H203.373V27.7293H199.872V8.06689H199.913ZM206.121 16.3919C206.609 16.3919 207.118 16.3715 207.627 16.3308C208.136 16.2901 208.584 16.168 209.011 16.0051C209.418 15.8219 209.764 15.5573 210.029 15.191C210.294 14.8246 210.416 14.3361 210.416 13.6847C210.416 13.1148 210.294 12.6467 210.049 12.3006C209.805 11.9546 209.5 11.69 209.113 11.5068C208.726 11.3236 208.299 11.2218 207.831 11.1608C207.363 11.0997 206.894 11.0794 206.447 11.0794H203.414V16.4122H206.141L206.121 16.3919Z" fill="#FFFFFF"></path>
<path d="M218.23 8.06689H231.237V11.2422H221.711V16.0662H230.728V19.2211H221.711V24.554H231.725V27.709H218.23V8.06689Z" fill="#FFFFFF"></path>
<path d="M73.3281 35.0376H80.9814C81.7142 35.0376 82.4469 35.119 83.1797 35.3022C83.8921 35.4854 84.5434 35.7704 85.1134 36.1571C85.6833 36.5642 86.1311 37.073 86.4975 37.704C86.8435 38.335 87.0267 39.0881 87.0267 39.9837C87.0267 41.0829 86.7214 41.9988 86.0904 42.7316C85.4594 43.444 84.6452 43.9732 83.6275 44.2785V44.3396C84.2381 44.421 84.8081 44.5838 85.3373 44.8485C85.8665 45.1131 86.3143 45.4591 86.6807 45.8662C87.047 46.2733 87.3524 46.7618 87.5559 47.3113C87.7798 47.8609 87.8816 48.4512 87.8816 49.0822C87.8816 50.161 87.678 51.0566 87.2506 51.769C86.8231 52.4814 86.2736 53.0513 85.5815 53.4991C84.8895 53.9266 84.0956 54.2522 83.2 54.4354C82.3044 54.6186 81.3885 54.7204 80.4725 54.7204H73.3892V35.0783L73.3281 35.0376ZM76.8291 43.0369H80.0247C81.185 43.0369 82.0602 42.813 82.6505 42.3652C83.2408 41.9174 83.5257 41.3068 83.5257 40.574C83.5257 39.7191 83.2204 39.0881 82.6301 38.6811C82.0195 38.274 81.0628 38.0501 79.7398 38.0501H76.8494V43.0369H76.8291ZM76.8291 51.6876H80.0451C80.4929 51.6876 80.9611 51.6672 81.4699 51.6061C81.9788 51.5451 82.4469 51.423 82.8744 51.2194C83.3018 51.0159 83.6478 50.7309 83.9328 50.3442C84.2178 49.9574 84.3399 49.4486 84.3399 48.7972C84.3399 47.7591 83.9939 47.0467 83.3222 46.6397C82.6505 46.2326 81.592 46.029 80.1672 46.029H76.8087V51.6876H76.8291Z" fill="#FFFFFF"></path>
<path d="M98.4877 35.0376H101.52L109.988 54.6797H105.998L104.167 50.1813H95.6584L93.8875 54.6797H89.9795L98.5284 35.0376H98.4877ZM102.925 47.1892L99.8921 39.1899L96.8186 47.1892H102.925Z" fill="#FFFFFF"></path>
<path d="M113 35.0376H117.641L127.146 49.6318H127.207V35.0376H130.708V54.7H126.271L116.562 39.6174H116.501V54.7H113V35.0376Z" fill="#FFFFFF"></path>
<path d="M135.921 35.0376H139.422V43.3626H139.585L147.726 35.0376H152.428L143.249 44.1157L153.039 54.7H148.134L139.605 45.0316H139.422V54.7H135.921V35.0376Z" fill="#FFFFFF"></path>
<path d="M23.5293 25.5394C23.5293 26.6589 24.4452 27.5952 25.5647 27.5952H29.2489C32.4038 27.5952 34.9685 30.1598 34.9685 33.3148C34.9685 36.4697 32.4038 39.0344 29.2489 39.0344V43.1256C34.6632 43.1256 39.0598 38.7291 39.0598 33.3148C39.0598 27.9005 34.6632 23.5039 29.2489 23.5039H25.5647C24.4249 23.5039 23.5293 24.4199 23.5293 25.5597" fill="#FFFFFF"></path>
<path d="M25.5862 35.3497H29.2704C30.4103 35.3497 31.3262 34.4338 31.3262 33.2939C31.3262 32.1541 30.4103 31.2585 29.2704 31.2585H25.5862C22.4313 31.2585 19.8666 28.6938 19.8666 25.5389C19.8666 22.3839 22.4313 19.8193 25.5862 19.8193V15.728C20.172 15.728 15.7754 20.1246 15.7754 25.5389C15.7754 30.9532 20.172 35.3497 25.5862 35.3497Z" fill="#FFFFFF"></path>
<path d="M50.5195 33.2933C50.5195 45.0378 40.9936 54.5637 29.2491 54.5637H25.565C13.8204 54.5637 4.29453 45.0378 4.29453 33.2933V31.2578H0.223633V33.2933C0.223633 47.2971 11.5814 58.6549 25.5853 58.6549H29.2695C43.2734 58.6549 54.6311 47.2971 54.6311 33.2933V31.2578H50.5399V33.2933H50.5195Z" fill="#FFFFFF"></path>
<path d="M29.2695 0.177246H25.5853C11.5814 0.177246 0.223633 11.535 0.223633 25.5389V27.5947H4.31488V25.5389C4.31488 13.7944 13.8408 4.2685 25.5853 4.2685H29.2695C41.014 4.2685 50.5399 13.7944 50.5399 25.5389V27.5947H54.6311V25.5389C54.6108 11.535 43.2734 0.177246 29.2695 0.177246Z" fill="#FFFFFF"></path>
<path d="M8 25.5389V33.3143C8 43.0234 15.8772 50.9006 25.5863 50.9006H29.2704C38.9795 50.9006 46.8567 43.0234 46.8567 33.3143V25.5389C46.8567 15.8298 38.9795 7.95264 29.2704 7.95264H25.5863C15.8772 7.95264 8 15.8298 8 25.5389ZM12.0912 25.5389C12.0912 18.0892 18.1365 12.0439 25.5863 12.0439H29.2704C35.2139 12.0439 40.2822 15.8909 42.0734 21.2441C38.8777 17.8449 34.3183 15.7077 29.2704 15.7077V19.7989C36.7202 19.7989 42.7654 25.8442 42.7654 33.294C42.7654 40.7437 36.7202 46.789 29.2704 46.789H25.5863C19.6428 46.789 14.5745 42.9216 12.7833 37.5684C15.979 40.9676 20.5384 43.1048 25.5863 43.1048V39.0136C18.1365 39.0136 12.0912 32.9683 12.0912 25.5186V25.5389Z" fill="#FFFFFF"></path>
</svg>