<svg xmlns:xlink="http://www.w3.org/1999/xlink" width="142" height="38" viewBox="0 0 142 38" fill="none" xmlns="http://www.w3.org/2000/svg" id="svg2037794045_9322">
<path d="M48.691 7.84234C48.4612 7.51041 48.142 7.25508 47.759 7.10189C47.376 6.94869 46.9675 6.87209 46.5335 6.87209C46.2781 6.87209 46.0356 6.89763 45.793 6.96146C45.5505 7.01252 45.3462 7.11465 45.1547 7.24232C44.9632 7.36998 44.81 7.53594 44.6951 7.7402C44.5802 7.94447 44.5164 8.18703 44.5164 8.46789C44.5164 8.88917 44.6568 9.20833 44.9504 9.42536C45.2441 9.64239 45.6015 9.83388 46.0356 9.99985C46.4696 10.1658 46.9292 10.319 47.4399 10.4722C47.9505 10.6254 48.4229 10.8297 48.8569 11.0978C49.291 11.3658 49.6484 11.7233 49.9421 12.1574C50.2357 12.6042 50.3761 13.1787 50.3761 13.9191C50.3761 14.583 50.2485 15.1574 50.0059 15.6553C49.7633 16.1532 49.4314 16.5617 49.0229 16.8809C48.6144 17.2001 48.1293 17.4554 47.5931 17.6086C47.0441 17.7745 46.4696 17.8511 45.8696 17.8511C45.1036 17.8511 44.3632 17.7235 43.661 17.4682C42.9589 17.2128 42.3461 16.7788 41.8354 16.1788L43.4951 14.583C43.7632 14.9915 44.1079 15.3106 44.5419 15.5277C44.976 15.7575 45.4356 15.8724 45.9207 15.8724C46.176 15.8724 46.4313 15.8341 46.6867 15.7702C46.942 15.7064 47.1718 15.5915 47.3888 15.4511C47.5931 15.3106 47.7718 15.1319 47.8995 14.9149C48.0271 14.6979 48.091 14.4553 48.091 14.1744C48.091 13.7276 47.9505 13.3702 47.6569 13.1276C47.3633 12.885 47.0058 12.6808 46.5718 12.5148C46.1377 12.3489 45.6781 12.1829 45.1675 12.0297C44.6568 11.8765 44.1845 11.6722 43.7632 11.4169C43.3291 11.1488 42.9717 10.8041 42.678 10.3701C42.3844 9.93601 42.244 9.34876 42.244 8.62108C42.244 7.98276 42.3716 7.43381 42.6397 6.97422C42.9078 6.51464 43.2397 6.11888 43.6738 5.81249C44.0951 5.50609 44.5802 5.2763 45.1292 5.1231C45.6781 4.96991 46.2271 4.89331 46.8016 4.89331C47.4526 4.89331 48.0782 4.99544 48.691 5.18694C49.3038 5.37843 49.8527 5.71036 50.3378 6.15718L48.742 7.84234H48.691Z" fill="#FFF3F9"></path>
<path d="M55.3037 5.19971H53.1079V17.5192H55.3037V5.19971Z" fill="#FFF3F9"></path>
<path d="M69.462 16.6256C67.9428 17.4426 66.2449 17.8384 64.3683 17.8384C63.4108 17.8384 62.5427 17.6852 61.7512 17.3788C60.9596 17.0724 60.2703 16.6383 59.6958 16.0766C59.1213 15.5149 58.6745 14.8383 58.3425 14.0468C58.0234 13.2553 57.8574 12.3872 57.8574 11.4169C57.8574 10.4467 58.0234 9.52749 58.3425 8.72321C58.6617 7.91893 59.1213 7.22955 59.6958 6.66783C60.2703 6.09335 60.9596 5.65929 61.7512 5.3529C62.5427 5.04651 63.4235 4.89331 64.3683 4.89331C65.313 4.89331 66.1938 5.00821 67.0109 5.238C67.8407 5.4678 68.5684 5.86355 69.2195 6.4508L67.5981 8.0849C67.2024 7.70191 66.73 7.40828 66.1683 7.19125C65.6066 6.98699 65.0066 6.87209 64.381 6.87209C63.7555 6.87209 63.1682 6.98699 62.6448 7.21678C62.1341 7.44658 61.6873 7.75297 61.3171 8.16149C60.9469 8.55725 60.6532 9.0296 60.449 9.56579C60.2447 10.102 60.1426 10.6765 60.1426 11.2892C60.1426 11.9531 60.2447 12.5531 60.449 13.1148C60.6532 13.6766 60.9341 14.1489 61.3171 14.5574C61.7001 14.966 62.1341 15.2851 62.6448 15.5149C63.1555 15.7447 63.7427 15.8596 64.381 15.8596C64.9427 15.8596 65.4662 15.8085 65.9513 15.7064C66.4492 15.6043 66.8832 15.4383 67.2662 15.2213V12.3106H64.7385V10.3318H69.4493V16.6256H69.462Z" fill="#FFF3F9"></path>
<path d="M72.5767 5.19971H75.4874L81.462 14.3532H81.4876V5.19971H83.6834V17.5192H80.9003L74.8108 8.07213H74.7725V17.5192H72.5767V5.19971Z" fill="#FFF3F9"></path>
<path d="M90.9477 5.19971H92.8499L98.1607 17.5192H95.6585L94.5095 14.6979H89.1604L88.0498 17.5192H85.5986L90.9605 5.19971H90.9477ZM93.7308 12.8212L91.8286 7.80404L89.9009 12.8212H93.7308Z" fill="#FFF3F9"></path>
<path d="M100.969 7.19126H97.1904V5.19971H106.944V7.19126H103.165V17.5192H100.969V7.19126Z" fill="#FFF3F9"></path>
<path d="M118.829 12.9999C118.829 13.7404 118.701 14.417 118.446 15.017C118.191 15.617 117.846 16.1149 117.399 16.5362C116.952 16.9575 116.429 17.2767 115.829 17.5065C115.229 17.7363 114.565 17.8511 113.863 17.8511C113.161 17.8511 112.497 17.7363 111.897 17.5065C111.297 17.2767 110.774 16.9575 110.327 16.5362C109.88 16.1149 109.535 15.617 109.28 15.017C109.025 14.417 108.91 13.7532 108.91 12.9999V5.19971H111.105V12.9233C111.105 13.2297 111.157 13.5361 111.246 13.8681C111.335 14.2 111.488 14.5064 111.705 14.7872C111.923 15.0681 112.203 15.2979 112.561 15.4766C112.918 15.6553 113.352 15.7447 113.876 15.7447C114.399 15.7447 114.833 15.6553 115.191 15.4766C115.548 15.2979 115.829 15.0681 116.046 14.7872C116.263 14.5064 116.416 14.2 116.506 13.8681C116.595 13.5361 116.646 13.217 116.646 12.9233V5.19971H118.842V12.9999H118.829Z" fill="#FFF3F9"></path>
<path d="M122.047 5.19971H126.323C126.91 5.19971 127.485 5.25077 128.034 5.36567C128.583 5.48057 129.068 5.6593 129.502 5.92739C129.936 6.19548 130.268 6.55294 130.523 7.01253C130.779 7.45935 130.906 8.03383 130.906 8.73598C130.906 9.62963 130.664 10.3828 130.166 10.9829C129.668 11.5829 128.966 11.9531 128.047 12.0808L131.315 17.532H128.672L125.813 12.3106H124.217V17.532H122.021V5.19971H122.047ZM125.94 10.4211C126.247 10.4211 126.566 10.4084 126.885 10.3828C127.204 10.3573 127.485 10.2807 127.753 10.1786C128.008 10.0637 128.225 9.89772 128.391 9.66793C128.557 9.43813 128.634 9.13174 128.634 8.72322C128.634 8.36576 128.557 8.07213 128.404 7.85511C128.251 7.63808 128.059 7.47212 127.817 7.35722C127.574 7.24232 127.306 7.17849 127.013 7.14019C126.719 7.10189 126.425 7.08913 126.145 7.08913H124.242V10.4339H125.953L125.94 10.4211Z" fill="#FFF3F9"></path>
<path d="M133.536 5.19971H141.694V7.19126H135.719V10.2169H141.375V12.1957H135.719V15.5404H142V17.5192H133.536V5.19971Z" fill="#FFF3F9"></path>
<path d="M42.6523 22.1151H47.4525C47.9121 22.1151 48.3717 22.1662 48.8313 22.2811C49.2781 22.396 49.6866 22.5747 50.0441 22.8173C50.4015 23.0726 50.6824 23.3917 50.9122 23.7875C51.1292 24.1833 51.2441 24.6556 51.2441 25.2173C51.2441 25.9067 51.0526 26.4812 50.6568 26.9408C50.2611 27.3876 49.7504 27.7195 49.1121 27.911V27.9493C49.4951 28.0004 49.8526 28.1025 50.1845 28.2685C50.5164 28.4345 50.7973 28.6515 51.0271 28.9068C51.2569 29.1621 51.4484 29.4685 51.576 29.8132C51.7164 30.1579 51.7803 30.5281 51.7803 30.9239C51.7803 31.6005 51.6526 32.1622 51.3845 32.609C51.1164 33.0559 50.7717 33.4133 50.3377 33.6942C49.9036 33.9623 49.4057 34.1665 48.844 34.2814C48.2823 34.3963 47.7078 34.4602 47.1333 34.4602H42.6906V22.1406L42.6523 22.1151ZM44.8482 27.1323H46.8525C47.5802 27.1323 48.1291 26.9919 48.4993 26.711C48.8696 26.4301 49.0483 26.0471 49.0483 25.5876C49.0483 25.0514 48.8568 24.6556 48.4866 24.4003C48.1036 24.145 47.5036 24.0045 46.6737 24.0045H44.8609V27.1323H44.8482ZM44.8482 32.558H46.8652C47.1461 32.558 47.4397 32.5452 47.7589 32.5069C48.078 32.4686 48.3717 32.392 48.6398 32.2644C48.9078 32.1367 49.1249 31.958 49.3036 31.7154C49.4823 31.4728 49.5589 31.1537 49.5589 30.7452C49.5589 30.0941 49.3419 29.6473 48.9206 29.3919C48.4993 29.1366 47.8355 29.0089 46.9418 29.0089H44.8354V32.558H44.8482Z" fill="#FFF3F9"></path>
<path d="M58.4315 22.1151H60.3337L65.6445 34.4346H63.1423L61.9934 31.6133H56.657L55.5463 34.4346H53.0952L58.4571 22.1151H58.4315ZM61.2146 29.7366L59.3124 24.7194L57.3847 29.7366H61.2146Z" fill="#FFF3F9"></path>
<path d="M67.5342 22.1151H70.4449L76.4068 31.2686H76.4451V22.1151H78.6409V34.4474H75.8578L69.7683 24.9875H69.73V34.4474H67.5342V22.1151Z" fill="#FFF3F9"></path>
<path d="M81.9092 22.1151H84.105V27.3365H84.2071L89.3137 22.1151H92.2627L86.5051 27.8089L92.6457 34.4474H89.569L84.2199 28.3834H84.105V34.4474H81.9092V22.1151Z" fill="#FFF3F9"></path>
<path d="M14.6177 16.2426C14.6177 16.9447 15.1922 17.532 15.8943 17.532H18.205C20.1838 17.532 21.7924 19.1405 21.7924 21.1193C21.7924 23.0981 20.1838 24.7067 18.205 24.7067V27.2727C21.6009 27.2727 24.3584 24.5152 24.3584 21.1193C24.3584 17.7235 21.6009 14.9659 18.205 14.9659H15.8943C15.1794 14.9659 14.6177 15.5404 14.6177 16.2553" fill="#B9975B"></path>
<path d="M15.9068 22.396H18.2175C18.9324 22.396 19.5069 21.8215 19.5069 21.1066C19.5069 20.3917 18.9324 19.83 18.2175 19.83H15.9068C13.928 19.83 12.3195 18.2214 12.3195 16.2426C12.3195 14.2638 13.928 12.6553 15.9068 12.6553V10.0892C12.5109 10.0892 9.75342 12.8468 9.75342 16.2426C9.75342 19.6385 12.5109 22.396 15.9068 22.396Z" fill="#B9975B"></path>
<path d="M31.5456 21.1066C31.5456 28.4728 25.571 34.4474 18.2048 34.4474H15.8941C8.52791 34.4474 2.55327 28.4728 2.55327 21.1066V19.83H0V21.1066C0 29.8898 7.12362 37.0134 15.9069 37.0134H18.2176C27.0008 37.0134 34.1244 29.8898 34.1244 21.1066V19.83H31.5584V21.1066H31.5456Z" fill="#B9975B"></path>
<path d="M18.2176 0.335693H15.9069C7.12362 0.335693 0 7.45931 0 16.2426V17.532H2.56603V16.2426C2.56603 8.87638 8.54068 2.90173 15.9069 2.90173H18.2176C25.5837 2.90173 31.5584 8.87638 31.5584 16.2426V17.532H34.1244V16.2426C34.1117 7.45931 27.0008 0.335693 18.2176 0.335693Z" fill="#B9975B"></path>
<path d="M4.87695 16.2425V21.1193C4.87695 27.2088 9.81753 32.1494 15.9071 32.1494H18.2178C24.3073 32.1494 29.2479 27.2088 29.2479 21.1193V16.2425C29.2479 10.153 24.3073 5.2124 18.2178 5.2124H15.9071C9.81753 5.2124 4.87695 10.153 4.87695 16.2425ZM7.44299 16.2425C7.44299 11.57 11.2346 7.77844 15.9071 7.77844H18.2178C21.9456 7.77844 25.1244 10.1913 26.2478 13.5488C24.2435 11.4168 21.3838 10.0764 18.2178 10.0764V12.6424C22.8903 12.6424 26.6819 16.434 26.6819 21.1065C26.6819 25.779 22.8903 29.5706 18.2178 29.5706H15.9071C12.1793 29.5706 9.00048 27.145 7.87704 23.7874C9.88136 25.9194 12.741 27.2599 15.9071 27.2599V24.6938C11.2346 24.6938 7.44299 20.9022 7.44299 16.2298V16.2425Z" fill="#B9975B"></path>
</svg>