<svg xmlns="http://www.w3.org/2000/svg" xmlns:xlink="http://www.w3.org/1999/xlink" style="width: 100%; height: 100%" viewBox="0 0 96 104" preserveAspectRatio="none" width="96" height="104"><defs><svg width="96" height="104" viewBox="0 0 96 104" fill="none" xmlns="http://www.w3.org/2000/svg" id="svg-200006830_2708">
<path d="M6.71871 103.314C4.35777 102.369 2.45562 100.545 1.41315 98.2261C-0.948915 93.5262 -0.161561 88.8263 2.3822 84.8774C4.78061 81.1587 8.75372 77.9972 13.2477 75.3444C18.9401 72.1159 24.9573 69.4971 31.1994 67.5314C36.0469 58.817 40.3433 49.8073 44.0636 40.5554C41.8393 35.5014 40.0954 30.2495 38.8549 24.8689C37.8132 20.0236 37.4134 15.2268 38.2977 11.1083C39.2062 6.82027 41.6167 2.96829 46.1713 1.1392C48.497 0.206487 51.0165 -0.314377 53.4634 0.206488C54.6942 0.468508 55.8513 1.0012 56.8507 1.76593C57.85 2.53066 58.6667 3.50826 59.2413 4.62779C60.3073 6.61435 60.6949 8.94007 60.7797 11.1447C60.8645 13.4098 60.6344 15.9294 60.2104 18.5821C59.1929 24.7598 56.9398 32.3185 53.9116 40.3131C57.2535 47.4601 61.2262 54.2948 65.7824 60.7359C71.174 60.3101 76.5968 60.5133 81.9414 61.3416C86.3506 62.1289 90.8324 63.7036 93.57 66.9742C95.0236 68.7185 95.9079 70.8504 95.9926 73.2488C96.0774 75.5745 95.4233 77.876 94.321 80.0685C93.3662 82.1003 91.8858 83.84 90.033 85.1076C88.2015 86.3022 86.0393 86.8873 83.8553 86.7792C79.8458 86.6096 75.9333 84.405 72.5537 81.728C68.4445 78.3299 64.7416 74.4685 61.5186 70.2205C53.327 71.1496 45.2327 72.7952 37.3287 75.1385C33.7049 81.5582 29.569 87.675 24.9611 93.4293C21.4483 97.6689 17.5963 101.363 13.7443 102.962C11.5311 103.964 9.02076 104.089 6.71871 103.314ZM23.4227 80.2865C21.412 81.2071 19.5465 82.1762 17.8628 83.1695C13.8897 85.5194 11.3096 87.8088 10.0256 89.7954C8.88697 91.5518 8.86274 92.8237 9.54108 94.1682C9.66221 94.4347 9.78334 94.6043 9.85602 94.7012C10.0005 94.6625 10.1421 94.6139 10.28 94.5558C11.9395 93.8775 14.5801 91.7092 17.9718 87.6271C19.9008 85.2654 21.7197 82.816 23.4227 80.2865ZM43.2883 64.1761C47.333 63.2312 51.4145 62.4513 55.5226 61.8382C53.316 58.4636 51.2549 54.996 49.3449 51.4451C47.4453 55.7405 45.4257 59.9818 43.2883 64.1639V64.1761ZM72.9171 69.627C74.7341 71.5893 76.5026 73.2609 78.1863 74.5934C81.0935 76.8949 83.1164 77.658 84.2187 77.6943C84.5138 77.7329 84.8132 77.6688 85.0666 77.5126C85.5705 77.1147 85.9628 76.593 86.2052 75.9985C86.6359 75.2606 86.8811 74.4293 86.9199 73.5759C86.9129 73.2913 86.8007 73.0194 86.605 72.8127C85.9751 72.0617 84.1823 70.9715 80.3303 70.2811C77.8801 69.8715 75.4013 69.6569 72.9171 69.6391V69.627ZM48.8119 27.1583C49.8314 23.8698 50.6406 20.5198 51.2345 17.1286C51.6101 14.8513 51.7554 12.9738 51.6949 11.4959C51.6982 10.6806 51.5672 9.87031 51.3072 9.09754C50.7013 9.17256 50.1095 9.3358 49.5508 9.58207C48.497 10.006 47.6369 10.8661 47.1766 13.0101C46.6921 15.3358 46.8132 18.6912 47.7338 22.9671C48.0246 24.3117 48.388 25.7168 48.824 27.1583H48.8119Z" fill="#FFFFFF"></path>
</svg></defs><use href="#svg-200006830_2708"></use></svg>