<svg xmlns:xlink="http://www.w3.org/1999/xlink" xmlns="http://www.w3.org/2000/svg" viewBox="0 0 250 250" width="250" height="250" preserveAspectRatio="xMidYMid slice" style="width: 100%; height: 100%; transform: translate3d(0px, 0px, 0px);"><defs><clipPath id="__lottie_element_1395"><rect width="250" height="250" x="0" y="0"></rect></clipPath></defs><g clip-path="url(#__lottie_element_1395)"><g style="display: none;" transform="matrix(1,0,0,1,92.25062561035156,158.50062561035156)" opacity="0.024999999999683383"><g opacity="1" transform="matrix(1,0,0,1,0,0)"><path stroke-linecap="round" stroke-linejoin="round" fill-opacity="0" stroke="#FFFFFF" stroke-opacity="1" stroke-width="18px" d=" M-14.819000244140625,75.31600189208984 C-14.819000244140625,75.31600189208984 -37.50400161743164,98 -37.50400161743164,98"></path></g></g><g style="display: block;" transform="matrix(1,0,0,1,89.84375,159.53125)" opacity="0.49999999999857536"><g opacity="1" transform="matrix(1,0,0,1,0,0)"><path stroke-linecap="round" stroke-linejoin="round" fill-opacity="0" stroke="#FFFFFF" stroke-opacity="1" stroke-width="18px" d=" M-45.06700134277344,45.07400131225586 C-45.06700134277344,45.07400131225586 -67.75199890136719,67.75900268554688 -67.75199890136719,67.75900268554688"></path></g></g><g style="display: block;" transform="matrix(1,0,0,1,125.9800033569336,128.24000549316406)" opacity="0.9999999999995531"><g opacity="1" transform="matrix(1,0,0,1,0,0)"><path stroke-linecap="round" stroke-linejoin="round" fill-opacity="0" stroke="#FFFFFF" stroke-opacity="1" stroke-width="18px" d=" M-75.31500244140625,14.833000183105469 C-75.31500244140625,14.833000183105469 -98,37.516998291015625 -98,37.516998291015625"></path></g></g><g transform="matrix(1,0,0,1,131.46153259277344,119.92308044433594)" opacity="1" style="display: block;"><g opacity="1" transform="matrix(1,0,0,1,0,0)"><g opacity="1" transform="matrix(1,0,0,1,0,0)"><path stroke-linecap="round" stroke-linejoin="round" fill-opacity="0" stroke="#FFFFFF" stroke-opacity="1" stroke-width="18px" d=" M-2.7139999866485596,38.505001068115234 C23.115999221801758,25.739999771118164 51.47700119018555,9.017000198364258 70.5530014038086,-10.059000015258789 C114.05500030517578,-53.56100082397461 92.81600189208984,-92.81600189208984 92.81600189208984,-92.81600189208984 C92.81600189208984,-92.81600189208984 53.56100082397461,-114.05500030517578 10.059000015258789,-70.55400085449219 C-9.017000198364258,-51.47800064086914 -25.740999221801758,-23.118000030517578 -38.50600051879883,2.7119998931884766 C-38.50600051879883,2.7119998931884766 -2.7139999866485596,38.505001068115234 -2.7139999866485596,38.505001068115234z"></path></g></g><g opacity="1" transform="matrix(1,0,0,1,0,0)"><path stroke-linecap="round" stroke-linejoin="round" fill-opacity="0" stroke="#FFFFFF" stroke-opacity="1" stroke-width="18px" d=" M-13.04800033569336,-47.446998596191406 C-29.753000259399414,-64.1520004272461 -56.83700180053711,-64.1520004272461 -73.54199981689453,-47.448001861572266 C-73.54199981689453,-47.448001861572266 -73.54199981689453,-47.446998596191406 -73.54199981689453,-47.446998596191406 C-73.54199981689453,-47.446998596191406 -33.409000396728516,-7.313000202178955 -33.409000396728516,-7.313000202178955"></path></g><g opacity="1" transform="matrix(1,0,0,1,0,0)"><path stroke-linecap="round" stroke-linejoin="round" fill-opacity="0" stroke="#FFFFFF" stroke-opacity="1" stroke-width="18px" d=" M47.44499969482422,13.04800033569336 C64.1500015258789,29.753000259399414 64.1500015258789,56.8380012512207 47.44499969482422,73.54199981689453 C47.44499969482422,73.54199981689453 47.44499969482422,73.54199981689453 47.44499969482422,73.54199981689453 C47.44499969482422,73.54199981689453 7.313000202178955,33.40800094604492 7.313000202178955,33.40800094604492"></path></g><g opacity="1" transform="matrix(1,0,0,1,0,0)"><path fill="#FFFFFF" fill-opacity="1" d=" M58.637001037597656,-39.92399978637695 C53.470001220703125,-34.75699996948242 45.09199905395508,-34.75699996948242 39.92399978637695,-39.92399978637695 C34.75699996948242,-45.090999603271484 34.75699996948242,-53.470001220703125 39.92399978637695,-58.637001037597656 C45.09199905395508,-63.80400085449219 53.470001220703125,-63.80400085449219 58.637001037597656,-58.637001037597656 C63.80500030517578,-53.470001220703125 63.80500030517578,-45.090999603271484 58.637001037597656,-39.92399978637695z"></path></g></g></g></svg>