<svg xmlns="http://www.w3.org/2000/svg" xmlns:xlink="http://www.w3.org/1999/xlink" style="width: 100%; height: 100%" viewBox="0 0 176 190" preserveAspectRatio="none" width="176" height="190"><defs><svg width="176" height="190" viewBox="0 0 176 190" fill="none" xmlns="http://www.w3.org/2000/svg" id="svg-24995920_2096">
<path d="M75.749 82.6609C75.749 86.2688 78.7009 89.2863 82.3088 89.2863H94.1821C104.35 89.2863 112.615 97.5516 112.615 107.719C112.615 117.887 104.35 126.152 94.1821 126.152V139.338C111.631 139.338 125.8 125.168 125.8 107.719C125.8 90.2702 111.631 76.1011 94.1821 76.1011H82.3088C78.6353 76.1011 75.749 79.053 75.749 82.7265" fill="#FFFFFF"></path>
<path d="M82.38 114.277H94.2532C97.9267 114.277 100.879 111.325 100.879 107.651C100.879 103.978 97.9267 101.091 94.2532 101.091H82.38C72.2123 101.091 63.9469 92.826 63.9469 82.6583C63.9469 72.4906 72.2123 64.2252 82.38 64.2252V51.04C64.9309 51.04 50.7617 65.2092 50.7617 82.6583C50.7617 100.107 64.9309 114.277 82.38 114.277Z" fill="#FFFFFF"></path>
<path d="M162.729 107.652C162.729 145.502 132.03 176.202 94.1795 176.202H82.3062C44.4562 176.202 13.7563 145.502 13.7563 107.652V101.092H0.636719V107.652C0.636719 152.783 37.2404 189.387 82.3718 189.387H94.2451C139.377 189.387 175.98 152.783 175.98 107.652V101.092H162.795V107.652H162.729Z" fill="#FFFFFF"></path>
<path d="M94.2451 0.924805H82.3718C37.2404 0.924805 0.636719 37.5285 0.636719 82.6599V89.2853H13.8219V82.6599C13.8219 44.8099 44.5218 14.11 82.3718 14.11H94.2451C132.095 14.11 162.795 44.8099 162.795 82.6599V89.2853H175.98V82.6599C175.915 37.5285 139.377 0.924805 94.2451 0.924805Z" fill="#FFFFFF"></path>
<path d="M25.6963 82.6606V107.719C25.6963 139.009 51.0827 164.396 82.373 164.396H94.2462C125.536 164.396 150.923 139.009 150.923 107.719V82.6606C150.923 51.3703 125.536 25.9839 94.2462 25.9839H82.373C51.0827 25.9839 25.6963 51.3703 25.6963 82.6606ZM38.8815 82.6606C38.8815 58.6517 58.3641 39.1691 82.373 39.1691H94.2462C113.401 39.1691 129.735 51.5671 135.507 68.8194C125.208 57.8645 110.515 50.9767 94.2462 50.9767V64.1619C118.255 64.1619 137.738 83.6445 137.738 107.653C137.738 131.662 118.255 151.145 94.2462 151.145H82.373C63.2184 151.145 46.8844 138.681 41.1118 121.429C51.4107 132.384 66.1047 139.272 82.373 139.272V126.086C58.3641 126.086 38.8815 106.604 38.8815 82.595V82.6606Z" fill="#FFFFFF"></path>
</svg></defs><use href="#svg-24995920_2096"></use></svg>