<svg width="512" height="513" viewBox="0 0 512 513" fill="none" xmlns="http://www.w3.org/2000/svg">
<path fill-rule="evenodd" clip-rule="evenodd" d="M502.794 443.595C486.99 491.621 425.073 515.583 380.836 511.589C320.42 506.128 254.679 474.076 204.776 438.783C131.423 386.9 62.7131 306.652 22.6747 221.49C-5.62188 161.313 -11.9707 87.3116 30.1157 32.4594C45.6805 12.1842 62.5424 1.36389 87.8011 0.100959C122.89 -1.60571 127.805 18.4647 139.854 49.7308C148.831 73.1122 160.812 96.9714 167.502 121.206C180.029 166.433 136.236 168.31 130.707 205.276C127.293 228.589 155.522 259.856 168.287 276.479C192.894 308.853 223.031 336.621 257.307 358.501C276.763 370.755 308.098 392.839 330.353 380.654C364.622 361.88 361.414 304.092 409.303 323.651C434.118 333.754 458.148 348.329 481.836 361.095C518.461 380.79 516.755 401.202 502.794 443.595C513.239 411.92 492.349 475.271 502.794 443.595Z" fill="white"/>
</svg>



