<svg width="20" height="20" viewBox="0 0 20 20" fill="none" xmlns="http://www.w3.org/2000/svg">
<path d="M9.75 0C4.365 0 0 4.365 0 9.75C0 15.135 4.365 19.5 9.75 19.5C15.135 19.5 19.5 15.135 19.5 9.75C19.49 4.37 15.13 0.01 9.75 0ZM14.391 8.044L8.897 13.294C8.755 13.427 8.567 13.501 8.372 13.5C8.179 13.503 7.994 13.429 7.856 13.294L5.109 10.669C4.902 10.488 4.81 10.208 4.871 9.939C4.931 9.67 5.134 9.456 5.399 9.382C5.664 9.307 5.949 9.384 6.141 9.581L8.372 11.709L13.359 6.956C13.662 6.692 14.12 6.714 14.397 7.005C14.673 7.297 14.671 7.755 14.391 8.044Z" fill="#333333"/>
</svg>
